<?xml version="1.0" standalone="no"?>
<!DOCTYPE svg PUBLIC "-//W3C//DTD SVG 20010904//EN"
 "http://www.w3.org/TR/2001/REC-SVG-20010904/DTD/svg10.dtd">
<svg version="1.0" xmlns="http://www.w3.org/2000/svg"
 width="1024.000000pt" height="1024.000000pt" viewBox="0 0 1024.000000 1024.000000"
 preserveAspectRatio="xMidYMid meet">
<metadata>
Created by potrace 1.14, written by Peter Selinger 2001-2017
</metadata>
<g transform="translate(0.000000,1024.000000) scale(0.100000,-0.100000)"
fill="#000000" stroke="none">
<path d="M4907 7684 c-2 -2 -30 -7 -63 -9 -72 -7 -224 -32 -279 -47 -22 -5
-51 -12 -65 -14 -45 -8 -193 -55 -295 -94 -346 -132 -639 -323 -900 -585 -60
-61 -126 -130 -145 -154 -19 -24 -45 -56 -57 -70 -41 -47 -43 -50 -43 -60 0
-5 -4 -11 -9 -13 -9 -3 -99 -136 -121 -178 -7 -14 -16 -27 -20 -30 -14 -10
-119 -218 -113 -224 4 -3 1 -6 -5 -6 -7 0 -11 -3 -10 -7 1 -5 -9 -30 -22 -58
-30 -66 -101 -265 -93 -265 3 0 -1 -7 -8 -17 -8 -9 -13 -18 -12 -19 2 -2 0
-17 -3 -34 l-6 -30 -707 -1 c-388 0 -713 -2 -721 -4 -8 -1 -28 -5 -45 -8 -82
-14 -105 -20 -105 -30 0 -6 -3 -8 -6 -4 -16 15 -196 -99 -244 -154 -63 -73
-110 -141 -104 -150 3 -5 1 -9 -4 -9 -5 0 -19 -31 -31 -69 -31 -97 -32 -106
-37 -199 -8 -174 54 -337 182 -478 32 -35 156 -124 165 -118 5 3 9 1 9 -4 0
-8 68 -33 161 -59 13 -4 350 -9 749 -10 399 -2 728 -7 731 -11 4 -4 21 -54 38
-112 18 -58 36 -114 41 -125 5 -11 27 -65 50 -120 91 -217 225 -435 393 -640
55 -67 274 -286 325 -325 18 -14 42 -32 52 -41 10 -8 31 -24 45 -35 15 -10 33
-25 40 -32 8 -6 16 -12 20 -12 3 0 15 -9 27 -20 12 -11 28 -20 35 -20 7 0 13
-4 13 -10 0 -5 6 -10 14 -10 8 0 16 -4 18 -8 3 -9 61 -43 153 -91 28 -14 52
-29 55 -32 3 -3 21 -11 40 -19 19 -7 54 -24 78 -38 23 -13 42 -21 42 -18 0 4
11 -1 25 -10 14 -9 25 -13 25 -10 0 4 11 -1 25 -10 14 -9 25 -13 25 -9 0 4 6
3 13 -2 12 -10 162 -61 201 -69 10 -2 33 -8 50 -13 34 -11 43 -13 191 -41 108
-20 186 -30 280 -36 74 -5 329 -5 370 0 17 2 59 7 95 11 78 8 108 13 135 18
11 3 40 8 65 12 63 10 61 10 203 49 310 86 595 227 857 425 110 83 123 95 260
231 122 122 158 161 210 230 14 18 35 44 47 59 13 14 23 29 23 32 0 3 11 19
25 35 14 16 25 35 25 42 0 6 3 12 8 12 4 0 16 17 27 38 11 20 25 43 32 49 11
12 145 282 164 331 5 12 13 32 19 45 27 65 38 97 33 97 -3 0 -1 6 5 13 9 11
39 106 47 150 2 9 7 22 10 27 4 7 253 10 710 10 595 0 715 2 777 15 151 32
286 117 383 240 17 21 32 43 34 49 2 6 10 17 18 24 7 8 11 18 8 23 -4 5 -1 9
4 9 6 0 11 9 11 19 0 11 4 22 9 25 7 5 15 28 38 121 11 44 12 183 2 230 -6 28
-13 61 -15 75 -5 25 -62 148 -86 184 -42 63 -146 166 -167 166 -6 0 -11 5 -11
10 0 6 -6 10 -14 10 -8 0 -16 4 -18 9 -1 5 -10 11 -18 13 -8 2 -17 6 -20 9 -6
7 -115 46 -155 56 -16 4 -356 9 -755 10 -398 2 -728 7 -731 11 -6 6 -37 104
-44 137 -18 80 -171 418 -237 521 -84 132 -164 248 -193 280 -5 6 -26 31 -45
55 -36 45 -252 264 -305 309 -17 14 -48 39 -70 55 -39 29 -48 36 -79 63 -8 6
-19 12 -25 12 -5 0 -11 3 -13 8 -4 11 -126 92 -138 92 -5 0 -10 3 -10 8 0 4
-10 12 -23 18 -12 6 -85 44 -162 84 -77 39 -142 72 -145 72 -3 0 -14 4 -25 8
-70 26 -172 62 -180 64 -5 1 -16 5 -22 9 -7 5 -13 5 -13 1 0 -3 -7 -1 -15 6
-8 7 -15 10 -15 6 0 -3 -12 -1 -27 5 -16 6 -39 13 -53 15 -14 3 -52 12 -84 20
-32 8 -73 17 -90 19 -17 3 -42 7 -56 10 -14 3 -45 8 -70 11 -25 3 -56 8 -70
11 -30 6 -487 13 -493 7z m408 -1309 c69 -10 216 -50 270 -74 73 -32 161 -77
163 -83 2 -4 8 -8 14 -8 9 0 104 -61 146 -94 32 -25 222 -218 222 -225 0 -4 9
-19 20 -32 32 -38 34 -41 63 -94 75 -133 123 -259 153 -406 29 -139 23 -421
-11 -529 -3 -10 -8 -27 -10 -38 -7 -38 -50 -157 -58 -163 -5 -3 -9 -9 -8 -12
1 -28 -98 -199 -169 -291 -34 -44 -213 -216 -225 -216 -7 0 -15 -4 -17 -8 -10
-26 -239 -152 -303 -168 -17 -4 -34 -10 -40 -14 -15 -12 -128 -40 -220 -55
-78 -13 -309 -13 -370 -1 -16 3 -46 9 -65 13 -19 3 -39 8 -45 9 -5 2 -22 5
-36 8 -15 3 -43 13 -63 21 -20 8 -36 13 -36 10 0 -3 -10 1 -22 9 -13 8 -27 16
-33 16 -16 2 -140 64 -143 72 -2 5 -8 8 -13 8 -9 0 -84 46 -105 65 -6 5 -22
17 -35 25 -44 29 -210 200 -244 252 -5 8 -23 35 -39 59 -90 133 -162 324 -190
499 -13 81 -15 317 -3 370 3 14 8 39 11 55 3 17 7 40 10 53 3 12 8 30 10 41 5
24 34 110 45 136 25 59 110 224 121 235 3 3 25 32 50 65 53 72 190 210 251
253 250 176 495 253 784 246 72 -2 148 -6 170 -9z"/>
</g>
</svg>
