<svg width="19" height="19" viewBox="0 0 19 19" fill="none" xmlns="http://www.w3.org/2000/svg">
<path fill-rule="evenodd" clip-rule="evenodd" d="M0.851562 9.39502C0.851562 5.79988 0.851562 4.00231 1.70825 2.70757C2.09081 2.12941 2.58595 1.63427 3.16412 1.25171C4.45885 0.39502 6.25642 0.39502 9.85156 0.39502C13.4467 0.39502 15.2443 0.39502 16.539 1.25171C17.1172 1.63427 17.6123 2.12941 17.9949 2.70757C18.8516 4.00231 18.8516 5.79988 18.8516 9.39502C18.8516 12.9902 18.8516 14.7877 17.9949 16.0825C17.6123 16.6606 17.1172 17.1558 16.539 17.5383C15.2443 18.395 13.4467 18.395 9.85156 18.395C6.25642 18.395 4.45885 18.395 3.16412 17.5383C2.58595 17.1558 2.09081 16.6606 1.70825 16.0825C0.851562 14.7877 0.851562 12.9902 0.851562 9.39502ZM14.5108 9.39525C14.5108 11.9686 12.4247 14.0547 9.8514 14.0547C7.27808 14.0547 5.19199 11.9686 5.19199 9.39525C5.19199 6.82193 7.27808 4.73584 9.8514 4.73584C12.4247 4.73584 14.5108 6.82193 14.5108 9.39525ZM9.8514 12.4782C11.5541 12.4782 12.9344 11.0979 12.9344 9.39525C12.9344 7.69255 11.5541 6.31224 9.8514 6.31224C8.14871 6.31224 6.7684 7.69255 6.7684 9.39525C6.7684 11.0979 8.14871 12.4782 9.8514 12.4782ZM14.6948 5.59657C15.2995 5.59657 15.7897 5.1064 15.7897 4.50174C15.7897 3.89709 15.2995 3.40692 14.6948 3.40692C14.0902 3.40692 13.6 3.89709 13.6 4.50174C13.6 5.1064 14.0902 5.59657 14.6948 5.59657Z" fill="#E3000B"/>
</svg>
