<svg width="19" height="18" viewBox="0 0 19 18" fill="none" xmlns="http://www.w3.org/2000/svg">
<path d="M0.851562 2.31507C0.851562 1.73786 1.05427 1.26167 1.45967 0.886501C1.86507 0.511315 2.39211 0.32373 3.04075 0.32373C3.67782 0.32373 4.19326 0.508423 4.58708 0.877843C4.99248 1.2588 5.19519 1.75518 5.19519 2.36702C5.19519 2.92113 4.99829 3.38288 4.60446 3.7523C4.19906 4.13325 3.66623 4.32373 3.006 4.32373H2.98863C2.35156 4.32373 1.83612 4.13325 1.4423 3.7523C1.04847 3.37135 0.851562 2.89227 0.851562 2.31507ZM1.07743 17.4666V5.89949H4.93457V17.4666H1.07743ZM7.07164 17.4666H10.9288V11.0077C10.9288 10.6037 10.9751 10.292 11.0678 10.0726C11.2299 9.68014 11.4761 9.34825 11.8062 9.07697C12.1363 8.80568 12.5504 8.67005 13.0485 8.67005C14.3458 8.67005 14.9944 9.54161 14.9944 11.2848V17.4666H18.8516V10.8345C18.8516 9.12603 18.4462 7.83022 17.6353 6.9471C16.8245 6.06399 15.7531 5.62243 14.4211 5.62243C12.9269 5.62243 11.7628 6.26312 10.9288 7.54451V7.57914H10.9114L10.9288 7.54451V5.89949H7.07164C7.0948 6.26889 7.10639 7.41751 7.10639 9.34537C7.10639 11.2732 7.0948 13.9803 7.07164 17.4666Z" fill="#E3000B"/>
</svg>
